<?xml version="1.0" encoding="UTF-8"?>
<!-- Created with Inkscape (http://www.inkscape.org/) -->
<svg width="400" height="400" version="1.1" viewBox="0 0 105.83333 105.83334" xmlns="http://www.w3.org/2000/svg" xmlns:cc="http://creativecommons.org/ns#" xmlns:dc="http://purl.org/dc/elements/1.1/" xmlns:rdf="http://www.w3.org/1999/02/22-rdf-syntax-ns#">
 <metadata>
  <rdf:RDF>
   <cc:Work rdf:about="">
    <dc:format>image/svg+xml</dc:format>
    <dc:type rdf:resource="http://purl.org/dc/dcmitype/StillImage"/>
    <dc:title/>
   </cc:Work>
  </rdf:RDF>
 </metadata>
 <g transform="translate(0 -191.17)">
  <g aria-label="ã¸">
   <path d="m75.87 235.49q20.464 19.327 23.564 22.221 1.757 1.6536 1.8604 4.2375 0.10335 2.4805-1.4469 4.3408l-5.9945 6.7179q-1.5503 1.757-4.0308 2.0671-2.4805 0.2067-4.3408-1.4469-12.092-11.162-30.592-29.042-9.7152-9.3018-11.989-9.3018-1.4469 0-3.3073 1.6536-1.757 1.6536-5.5811 6.8213-8.4749 11.576-13.229 17.57-1.4469 1.8604-4.0308 2.0671-2.4805 0.10336-4.2375-1.5503l-5.9945-5.4777q-1.757-1.757-1.9637-4.2375-0.20671-2.5838 1.3436-4.5475 3.4106-4.1341 10.852-13.643 6.0978-7.9582 9.3018-11.679 3.2039-3.8241 6.2012-6.0978 3.1006-2.3771 5.1676-2.6872 2.0671-0.41341 5.9945-0.41341 3.514 0 5.271 0.41341 1.757 0.31006 5.4777 2.7905 3.7207 2.3771 8.1649 6.4079 4.4442 4.0308 13.539 12.816z" stroke-width=".26458"/>
  </g>
 </g>
</svg>
